<svg id="my-svg" width="100%" xmlns="http://www.w3.org/2000/svg" xmlns:xlink="http://www.w3.org/1999/xlink" style="max-width: 752.082px; background-color: white;" viewBox="-8 -8 752.08203125 2323.4375" role="graphics-document document" aria-roledescription="flowchart-v2"><style>#my-svg{font-family:"trebuchet ms",verdana,arial,sans-serif;font-size:16px;fill:#000000;}#my-svg .error-icon{fill:#552222;}#my-svg .error-text{fill:#552222;stroke:#552222;}#my-svg .edge-thickness-normal{stroke-width:2px;}#my-svg .edge-thickness-thick{stroke-width:3.5px;}#my-svg .edge-pattern-solid{stroke-dasharray:0;}#my-svg .edge-pattern-dashed{stroke-dasharray:3;}#my-svg .edge-pattern-dotted{stroke-dasharray:2;}#my-svg .marker{fill:#666;stroke:#666;}#my-svg .marker.cross{stroke:#666;}#my-svg svg{font-family:"trebuchet ms",verdana,arial,sans-serif;font-size:16px;}#my-svg .label{font-family:"trebuchet ms",verdana,arial,sans-serif;color:#000000;}#my-svg .cluster-label text{fill:#333;}#my-svg .cluster-label span,#my-svg p{color:#333;}#my-svg .label text,#my-svg span,#my-svg p{fill:#000000;color:#000000;}#my-svg .node rect,#my-svg .node circle,#my-svg .node ellipse,#my-svg .node polygon,#my-svg .node path{fill:#eee;stroke:#999;stroke-width:1px;}#my-svg .flowchart-label text{text-anchor:middle;}#my-svg .node .katex path{fill:#000;stroke:#000;stroke-width:1px;}#my-svg .node .label{text-align:center;}#my-svg .node.clickable{cursor:pointer;}#my-svg .arrowheadPath{fill:#333333;}#my-svg .edgePath .path{stroke:#666;stroke-width:2.0px;}#my-svg .flowchart-link{stroke:#666;fill:none;}#my-svg .edgeLabel{background-color:white;text-align:center;}#my-svg .edgeLabel rect{opacity:0.5;background-color:white;fill:white;}#my-svg .labelBkg{background-color:rgba(255, 255, 255, 0.5);}#my-svg .cluster rect{fill:hsl(0, 0%, 98.9215686275%);stroke:#707070;stroke-width:1px;}#my-svg .cluster text{fill:#333;}#my-svg .cluster span,#my-svg p{color:#333;}#my-svg div.mermaidTooltip{position:absolute;text-align:center;max-width:200px;padding:2px;font-family:"trebuchet ms",verdana,arial,sans-serif;font-size:12px;background:hsl(-160, 0%, 93.3333333333%);border:1px solid #707070;border-radius:2px;pointer-events:none;z-index:100;}#my-svg .flowchartTitleText{text-anchor:middle;font-size:18px;fill:#000000;}#my-svg :root{--mermaid-font-family:"trebuchet ms",verdana,arial,sans-serif;}</style><g><marker id="my-svg_flowchart-pointEnd" class="marker flowchart" viewBox="0 0 10 10" refX="6" refY="5" markerUnits="userSpaceOnUse" markerWidth="12" markerHeight="12" orient="auto"><path d="M 0 0 L 10 5 L 0 10 z" class="arrowMarkerPath" style="stroke-width: 1; stroke-dasharray: 1, 0;"/></marker><marker id="my-svg_flowchart-pointStart" class="marker flowchart" viewBox="0 0 10 10" refX="4.5" refY="5" markerUnits="userSpaceOnUse" markerWidth="12" markerHeight="12" orient="auto"><path d="M 0 5 L 10 10 L 10 0 z" class="arrowMarkerPath" style="stroke-width: 1; stroke-dasharray: 1, 0;"/></marker><marker id="my-svg_flowchart-circleEnd" class="marker flowchart" viewBox="0 0 10 10" refX="11" refY="5" markerUnits="userSpaceOnUse" markerWidth="11" markerHeight="11" orient="auto"><circle cx="5" cy="5" r="5" class="arrowMarkerPath" style="stroke-width: 1; stroke-dasharray: 1, 0;"/></marker><marker id="my-svg_flowchart-circleStart" class="marker flowchart" viewBox="0 0 10 10" refX="-1" refY="5" markerUnits="userSpaceOnUse" markerWidth="11" markerHeight="11" orient="auto"><circle cx="5" cy="5" r="5" class="arrowMarkerPath" style="stroke-width: 1; stroke-dasharray: 1, 0;"/></marker><marker id="my-svg_flowchart-crossEnd" class="marker cross flowchart" viewBox="0 0 11 11" refX="12" refY="5.2" markerUnits="userSpaceOnUse" markerWidth="11" markerHeight="11" orient="auto"><path d="M 1,1 l 9,9 M 10,1 l -9,9" class="arrowMarkerPath" style="stroke-width: 2; stroke-dasharray: 1, 0;"/></marker><marker id="my-svg_flowchart-crossStart" class="marker cross flowchart" viewBox="0 0 11 11" refX="-1" refY="5.2" markerUnits="userSpaceOnUse" markerWidth="11" markerHeight="11" orient="auto"><path d="M 1,1 l 9,9 M 10,1 l -9,9" class="arrowMarkerPath" style="stroke-width: 2; stroke-dasharray: 1, 0;"/></marker><g class="root"><g class="clusters"/><g class="edgePaths"><path d="M216.207,34L216.207,38.167C216.207,42.333,216.207,50.667,216.207,58.117C216.207,65.567,216.207,72.133,216.207,75.417L216.207,78.7" id="L-START-INIT-0" class="edge-thickness-normal edge-pattern-solid flowchart-link LS-START LE-INIT" style="fill:none;" marker-end="url(#my-svg_flowchart-pointEnd)"/><path d="M216.207,118L216.207,122.167C216.207,126.333,216.207,134.667,216.207,142.117C216.207,149.567,216.207,156.133,216.207,159.417L216.207,162.7" id="L-INIT-MC-0" class="edge-thickness-normal edge-pattern-solid flowchart-link LS-INIT LE-MC" style="fill:none;" marker-end="url(#my-svg_flowchart-pointEnd)"/><path d="M216.207,202L216.207,206.167C216.207,210.333,216.207,218.667,216.207,226.117C216.207,233.567,216.207,240.133,216.207,243.417L216.207,246.7" id="L-MC-FUND-0" class="edge-thickness-normal edge-pattern-solid flowchart-link LS-MC LE-FUND" style="fill:none;" marker-end="url(#my-svg_flowchart-pointEnd)"/><path d="M216.207,305L216.207,309.167C216.207,313.333,216.207,321.667,216.207,329.117C216.207,336.567,216.207,343.133,216.207,346.417L216.207,349.7" id="L-FUND-FUNDED-0" class="edge-thickness-normal edge-pattern-solid flowchart-link LS-FUND LE-FUNDED" style="fill:none;" marker-end="url(#my-svg_flowchart-pointEnd)"/><path d="M216.207,389L216.207,393.167C216.207,397.333,216.207,405.667,216.273,413.2C216.339,420.734,216.471,427.467,216.537,430.834L216.603,434.201" id="L-FUNDED-VERIFY-0" class="edge-thickness-normal edge-pattern-solid flowchart-link LS-FUNDED LE-VERIFY" style="fill:none;" marker-end="url(#my-svg_flowchart-pointEnd)"/><path d="M157.343,701.479L148.092,717.04C138.842,732.601,120.341,763.722,111.09,784.15C101.84,804.577,101.84,814.31,101.84,819.177L101.84,824.044" id="L-VERIFY-TABORT-0" class="edge-thickness-normal edge-pattern-solid flowchart-link LS-VERIFY LE-TABORT" style="fill:none;" marker-end="url(#my-svg_flowchart-pointEnd)"/><path d="M101.84,882.344L101.84,886.51C101.84,890.677,101.84,899.01,101.84,906.46C101.84,913.91,101.84,920.477,101.84,923.76L101.84,927.044" id="L-TABORT-ABEND-0" class="edge-thickness-normal edge-pattern-solid flowchart-link LS-TABORT LE-ABEND" style="fill:none;" marker-end="url(#my-svg_flowchart-pointEnd)"/><path d="M309.211,532.004L330.049,516.503C350.887,501.003,392.562,470.001,415.79,454.501C439.018,439,443.798,439,448.578,465.779C453.358,492.557,458.138,546.115,458.138,599.672C458.138,653.229,453.358,706.786,448.578,733.565C443.798,760.344,439.018,760.344,416.502,745.533C393.985,730.723,353.733,701.102,333.606,686.292L313.48,671.481" id="L-VERIFY-VERIFY-0" class="edge-thickness-normal edge-pattern-solid flowchart-link LS-VERIFY LE-VERIFY" style="fill:none;" marker-end="url(#my-svg_flowchart-pointEnd)"/><path d="M276.071,701.479L285.155,717.04C294.239,732.601,312.407,763.722,321.49,784.15C330.574,804.577,330.574,814.31,330.574,819.177L330.574,824.044" id="L-VERIFY-LOCK-0" class="edge-thickness-normal edge-pattern-solid flowchart-link LS-VERIFY LE-LOCK" style="fill:none;" marker-end="url(#my-svg_flowchart-pointEnd)"/><path d="M330.574,882.344L330.574,886.51C330.574,890.677,330.574,899.01,330.574,906.46C330.574,913.91,330.574,920.477,330.574,923.76L330.574,927.044" id="L-LOCK-LOCKED-0" class="edge-thickness-normal edge-pattern-solid flowchart-link LS-LOCK LE-LOCKED" style="fill:none;" marker-end="url(#my-svg_flowchart-pointEnd)"/><path d="M330.574,966.344L330.574,970.51C330.574,974.677,330.574,983.01,330.64,990.544C330.706,998.077,330.838,1004.811,330.904,1008.178L330.97,1011.545" id="L-LOCKED-CONF-0" class="edge-thickness-normal edge-pattern-solid flowchart-link LS-LOCKED LE-CONF" style="fill:none;" marker-end="url(#my-svg_flowchart-pointEnd)"/><path d="M408.097,1093.866L427.466,1080.946C446.835,1068.025,485.573,1042.185,507.687,1029.264C529.802,1016.344,535.292,1016.344,540.783,1037.652C546.273,1058.961,551.763,1101.578,551.763,1144.195C551.763,1186.813,546.273,1229.43,540.783,1250.738C535.292,1272.047,529.802,1272.047,508.425,1259.779C487.049,1247.511,449.786,1222.975,431.155,1210.707L412.523,1198.439" id="L-CONF-CONF-0" class="edge-thickness-normal edge-pattern-solid flowchart-link LS-CONF LE-CONF" style="fill:none;" marker-end="url(#my-svg_flowchart-pointEnd)"/><path d="M258.899,1200.371L235.767,1218.067C212.636,1235.763,166.372,1271.155,143.241,1297.434C120.109,1323.714,120.109,1340.88,120.109,1356.464C120.109,1372.047,120.109,1386.047,120.109,1419.246C120.109,1452.445,120.109,1504.844,120.109,1558.826C120.109,1612.807,120.109,1668.372,120.109,1704.738C120.109,1741.104,120.109,1758.271,120.109,1773.854C120.109,1789.438,120.109,1803.438,120.109,1819.021C120.109,1834.604,120.109,1851.771,120.109,1868.938C120.109,1886.104,120.109,1903.271,120.109,1920.438C120.109,1937.604,120.109,1954.771,120.109,1973.521C120.109,1992.271,120.109,2012.604,126.047,2027.941C131.984,2043.277,143.859,2053.617,149.796,2058.787L155.733,2063.957" id="L-CONF-REFUNDW-0" class="edge-thickness-normal edge-pattern-solid flowchart-link LS-CONF LE-REFUNDW" style="fill:none;" marker-end="url(#my-svg_flowchart-pointEnd)"/><path d="M190.164,2120.438L190.164,2124.604C190.164,2128.771,190.164,2137.104,190.164,2146.138C190.164,2155.171,190.164,2164.904,190.164,2169.771L190.164,2174.638" id="L-REFUNDW-REFEND-0" class="edge-thickness-normal edge-pattern-solid flowchart-link LS-REFUNDW LE-REFEND" style="fill:none;" marker-end="url(#my-svg_flowchart-pointEnd)"/><path d="M382.773,1220.848L392.443,1235.131C402.113,1249.414,421.453,1277.981,431.123,1297.13C440.793,1316.28,440.793,1326.014,440.793,1330.88L440.793,1335.747" id="L-CONF-CLAIMREQ-0" class="edge-thickness-normal edge-pattern-solid flowchart-link LS-CONF LE-CLAIMREQ" style="fill:none;" marker-end="url(#my-svg_flowchart-pointEnd)"/><path d="M440.793,1375.047L440.793,1379.214C440.793,1383.38,440.793,1391.714,440.859,1399.247C440.925,1406.781,441.057,1413.514,441.123,1416.881L441.189,1420.248" id="L-CLAIMREQ-COSIGN-0" class="edge-thickness-normal edge-pattern-solid flowchart-link LS-CLAIMREQ LE-COSIGN" style="fill:none;" marker-end="url(#my-svg_flowchart-pointEnd)"/><path d="M380.853,1629.497L367.441,1645.237C354.029,1660.977,327.206,1692.457,313.794,1716.781C300.383,1741.104,300.383,1758.271,300.383,1773.854C300.383,1789.438,300.383,1803.438,300.383,1819.021C300.383,1834.604,300.383,1851.771,300.383,1868.938C300.383,1886.104,300.383,1903.271,300.383,1920.438C300.383,1937.604,300.383,1954.771,300.383,1973.521C300.383,1992.271,300.383,2012.604,290.766,2028.093C281.15,2043.582,261.916,2054.227,252.3,2059.549L242.683,2064.871" id="L-COSIGN-REFUNDW-0" class="edge-thickness-normal edge-pattern-solid flowchart-link LS-COSIGN LE-REFUNDW" style="fill:none;" marker-end="url(#my-svg_flowchart-pointEnd)"/><path d="M497.311,1633.919L508.322,1648.922C519.332,1663.925,541.354,1693.931,552.364,1713.801C563.375,1733.671,563.375,1743.404,563.375,1748.271L563.375,1753.138" id="L-COSIGN-PRESIG-0" class="edge-thickness-normal edge-pattern-solid flowchart-link LS-COSIGN LE-PRESIG" style="fill:none;" marker-end="url(#my-svg_flowchart-pointEnd)"/><path d="M563.375,1792.438L563.375,1796.604C563.375,1800.771,563.375,1809.104,563.375,1816.554C563.375,1824.004,563.375,1830.571,563.375,1833.854L563.375,1837.138" id="L-PRESIG-FINAL-0" class="edge-thickness-normal edge-pattern-solid flowchart-link LS-PRESIG LE-FINAL" style="fill:none;" marker-end="url(#my-svg_flowchart-pointEnd)"/><path d="M563.375,1895.438L563.375,1899.604C563.375,1903.771,563.375,1912.104,563.375,1919.554C563.375,1927.004,563.375,1933.571,563.375,1936.854L563.375,1940.138" id="L-FINAL-MINE-0" class="edge-thickness-normal edge-pattern-solid flowchart-link LS-FINAL LE-MINE" style="fill:none;" marker-end="url(#my-svg_flowchart-pointEnd)"/><path d="M589.938,1998.438L595.701,2004.188C601.465,2009.938,612.992,2021.438,618.756,2032.054C624.52,2042.671,624.52,2052.404,624.52,2057.271L624.52,2062.137" id="L-MINE-SCRAPE-0" class="edge-thickness-normal edge-pattern-solid flowchart-link LS-MINE LE-SCRAPE" style="fill:none;" marker-end="url(#my-svg_flowchart-pointEnd)"/><path d="M624.52,2120.438L624.52,2124.604C624.52,2128.771,624.52,2137.104,624.52,2144.554C624.52,2152.004,624.52,2158.571,624.52,2161.854L624.52,2165.138" id="L-SCRAPE-SWEEP-0" class="edge-thickness-normal edge-pattern-solid flowchart-link LS-SCRAPE LE-SWEEP" style="fill:none;" marker-end="url(#my-svg_flowchart-pointEnd)"/><path d="M624.52,2223.438L624.52,2227.604C624.52,2231.771,624.52,2240.104,624.52,2247.554C624.52,2255.004,624.52,2261.571,624.52,2264.854L624.52,2268.138" id="L-SWEEP-DONE-0" class="edge-thickness-normal edge-pattern-solid flowchart-link LS-SWEEP LE-DONE" style="fill:none;" marker-end="url(#my-svg_flowchart-pointEnd)"/><path d="M528.94,1998.438L521.468,2004.188C513.996,2009.938,499.053,2021.438,463.331,2033.05C427.61,2044.662,371.111,2056.387,342.861,2062.25L314.611,2068.112" id="L-MINE-REFUNDW-0" class="edge-thickness-normal edge-pattern-dotted flowchart-link LS-MINE LE-REFUNDW" style="fill:none;stroke-width:2px;stroke-dasharray:3;" marker-end="url(#my-svg_flowchart-pointEnd)"/></g><g class="edgeLabels"><g class="edgeLabel"><g class="label" transform="translate(0, 0)"><foreignObject width="0" height="0"><div xmlns="http://www.w3.org/1999/xhtml" style="display: inline-block; white-space: nowrap;"><span class="edgeLabel"></span></div></foreignObject></g></g><g class="edgeLabel"><g class="label" transform="translate(0, 0)"><foreignObject width="0" height="0"><div xmlns="http://www.w3.org/1999/xhtml" style="display: inline-block; white-space: nowrap;"><span class="edgeLabel"></span></div></foreignObject></g></g><g class="edgeLabel"><g class="label" transform="translate(0, 0)"><foreignObject width="0" height="0"><div xmlns="http://www.w3.org/1999/xhtml" style="display: inline-block; white-space: nowrap;"><span class="edgeLabel"></span></div></foreignObject></g></g><g class="edgeLabel"><g class="label" transform="translate(0, 0)"><foreignObject width="0" height="0"><div xmlns="http://www.w3.org/1999/xhtml" style="display: inline-block; white-space: nowrap;"><span class="edgeLabel"></span></div></foreignObject></g></g><g class="edgeLabel"><g class="label" transform="translate(0, 0)"><foreignObject width="0" height="0"><div xmlns="http://www.w3.org/1999/xhtml" style="display: inline-block; white-space: nowrap;"><span class="edgeLabel"></span></div></foreignObject></g></g><g class="edgeLabel" transform="translate(101.83984375, 794.84375)"><g class="label" transform="translate(-87.09375, -9.5)"><foreignObject width="174.1875" height="19"><div xmlns="http://www.w3.org/1999/xhtml" style="display: inline-block; white-space: nowrap;"><span class="edgeLabel">mismatch / unclaimable</span></div></foreignObject></g></g><g class="edgeLabel"><g class="label" transform="translate(0, 0)"><foreignObject width="0" height="0"><div xmlns="http://www.w3.org/1999/xhtml" style="display: inline-block; white-space: nowrap;"><span class="edgeLabel"></span></div></foreignObject></g></g><g class="edgeLabel" transform="translate(462.91796875, 599.671875)"><g class="label" transform="translate(-51.0390625, -9.5)"><foreignObject width="102.078125" height="19"><div xmlns="http://www.w3.org/1999/xhtml" style="display: inline-block; white-space: nowrap;"><span class="edgeLabel">not visible yet</span></div></foreignObject></g></g><g class="edgeLabel" transform="translate(330.57421875, 794.84375)"><g class="label" transform="translate(-17.21875, -9.5)"><foreignObject width="34.4375" height="19"><div xmlns="http://www.w3.org/1999/xhtml" style="display: inline-block; white-space: nowrap;"><span class="edgeLabel">valid</span></div></foreignObject></g></g><g class="edgeLabel"><g class="label" transform="translate(0, 0)"><foreignObject width="0" height="0"><div xmlns="http://www.w3.org/1999/xhtml" style="display: inline-block; white-space: nowrap;"><span class="edgeLabel"></span></div></foreignObject></g></g><g class="edgeLabel"><g class="label" transform="translate(0, 0)"><foreignObject width="0" height="0"><div xmlns="http://www.w3.org/1999/xhtml" style="display: inline-block; white-space: nowrap;"><span class="edgeLabel"></span></div></foreignObject></g></g><g class="edgeLabel" transform="translate(557.25390625, 1144.1953125)"><g class="label" transform="translate(-63.828125, -9.5)"><foreignObject width="127.65625" height="19"><div xmlns="http://www.w3.org/1999/xhtml" style="display: inline-block; white-space: nowrap;"><span class="edgeLabel">not cemented yet</span></div></foreignObject></g></g><g class="edgeLabel" transform="translate(120.109375, 1775.4375)"><g class="label" transform="translate(-120.109375, -9.5)"><foreignObject width="240.21875" height="19"><div xmlns="http://www.w3.org/1999/xhtml" style="display: inline-block; white-space: nowrap;"><span class="edgeLabel">wrong account/amount or stalled</span></div></foreignObject></g></g><g class="edgeLabel"><g class="label" transform="translate(0, 0)"><foreignObject width="0" height="0"><div xmlns="http://www.w3.org/1999/xhtml" style="display: inline-block; white-space: nowrap;"><span class="edgeLabel"></span></div></foreignObject></g></g><g class="edgeLabel" transform="translate(440.79296875, 1306.546875)"><g class="label" transform="translate(-36.4375, -9.5)"><foreignObject width="72.875" height="19"><div xmlns="http://www.w3.org/1999/xhtml" style="display: inline-block; white-space: nowrap;"><span class="edgeLabel">confirmed</span></div></foreignObject></g></g><g class="edgeLabel"><g class="label" transform="translate(0, 0)"><foreignObject width="0" height="0"><div xmlns="http://www.w3.org/1999/xhtml" style="display: inline-block; white-space: nowrap;"><span class="edgeLabel"></span></div></foreignObject></g></g><g class="edgeLabel" transform="translate(300.3828125, 1868.9375)"><g class="label" transform="translate(-97.59375, -9.5)"><foreignObject width="195.1875" height="19"><div xmlns="http://www.w3.org/1999/xhtml" style="display: inline-block; white-space: nowrap;"><span class="edgeLabel">bad s_a / second core hash</span></div></foreignObject></g></g><g class="edgeLabel" transform="translate(563.375, 1723.9375)"><g class="label" transform="translate(-45.8984375, -9.5)"><foreignObject width="91.796875" height="19"><div xmlns="http://www.w3.org/1999/xhtml" style="display: inline-block; white-space: nowrap;"><span class="edgeLabel">ok: store s_a</span></div></foreignObject></g></g><g class="edgeLabel"><g class="label" transform="translate(0, 0)"><foreignObject width="0" height="0"><div xmlns="http://www.w3.org/1999/xhtml" style="display: inline-block; white-space: nowrap;"><span class="edgeLabel"></span></div></foreignObject></g></g><g class="edgeLabel"><g class="label" transform="translate(0, 0)"><foreignObject width="0" height="0"><div xmlns="http://www.w3.org/1999/xhtml" style="display: inline-block; white-space: nowrap;"><span class="edgeLabel"></span></div></foreignObject></g></g><g class="edgeLabel"><g class="label" transform="translate(0, 0)"><foreignObject width="0" height="0"><div xmlns="http://www.w3.org/1999/xhtml" style="display: inline-block; white-space: nowrap;"><span class="edgeLabel"></span></div></foreignObject></g></g><g class="edgeLabel"><g class="label" transform="translate(0, 0)"><foreignObject width="0" height="0"><div xmlns="http://www.w3.org/1999/xhtml" style="display: inline-block; white-space: nowrap;"><span class="edgeLabel"></span></div></foreignObject></g></g><g class="edgeLabel"><g class="label" transform="translate(0, 0)"><foreignObject width="0" height="0"><div xmlns="http://www.w3.org/1999/xhtml" style="display: inline-block; white-space: nowrap;"><span class="edgeLabel"></span></div></foreignObject></g></g><g class="edgeLabel" transform="translate(484.109375, 2032.9375)"><g class="label" transform="translate(-102.2890625, -9.5)"><foreignObject width="204.578125" height="19"><div xmlns="http://www.w3.org/1999/xhtml" style="display: inline-block; white-space: nowrap;"><span class="edgeLabel">window closes with no claim</span></div></foreignObject></g></g></g><g class="nodes"><g class="node default default flowchart-label" id="flowchart-START-0" data-node="true" data-id="START" transform="translate(216.20703125, 17)"><rect style="" rx="17" ry="17" x="-108.546875" y="-17" width="217.09375" height="34"/><g class="label" style="" transform="translate(-96.796875, -9.5)"><rect/><foreignObject width="193.59375" height="19"><div xmlns="http://www.w3.org/1999/xhtml" style="display: inline-block; white-space: nowrap;"><span class="nodeLabel">Taker takes OBX/XNO offer</span></div></foreignObject></g></g><g class="node default default flowchart-label" id="flowchart-INIT-1" data-node="true" data-id="INIT" transform="translate(216.20703125, 101)"><rect class="basic label-container" style="" rx="0" ry="0" x="-50.8671875" y="-17" width="101.734375" height="34"/><g class="label" style="" transform="translate(-43.3671875, -9.5)"><rect/><foreignObject width="86.734375" height="19"><div xmlns="http://www.w3.org/1999/xhtml" style="display: inline-block; white-space: nowrap;"><span class="nodeLabel">Taker -&gt; Init</span></div></foreignObject></g></g><g class="node default default flowchart-label" id="flowchart-MC-3" data-node="true" data-id="MC" transform="translate(216.20703125, 185)"><rect class="basic label-container" style="" rx="0" ry="0" x="-129.4921875" y="-17" width="258.984375" height="34"/><g class="label" style="" transform="translate(-121.9921875, -9.5)"><rect/><foreignObject width="243.984375" height="19"><div xmlns="http://www.w3.org/1999/xhtml" style="display: inline-block; white-space: nowrap;"><span class="nodeLabel">Maker HandleInit -&gt; MakerCommit</span></div></foreignObject></g></g><g class="node default default flowchart-label" id="flowchart-FUND-5" data-node="true" data-id="FUND" transform="translate(216.20703125, 278.5)"><rect class="basic label-container" style="" rx="0" ry="0" x="-116.171875" y="-26.5" width="232.34375" height="53"/><g class="label" style="" transform="translate(-108.671875, -19)"><rect/><foreignObject width="217.34375" height="38"><div xmlns="http://www.w3.org/1999/xhtml" style="display: inline-block; white-space: nowrap;"><span class="nodeLabel">Maker Fund OBX SwapOut to K<br />refund=B, bind R,T, unlock h</span></div></foreignObject></g></g><g class="node default default flowchart-label" id="flowchart-FUNDED-7" data-node="true" data-id="FUNDED" transform="translate(216.20703125, 372)"><rect class="basic label-container" style="" rx="0" ry="0" x="-67.0625" y="-17" width="134.125" height="34"/><g class="label" style="" transform="translate(-59.5625, -9.5)"><rect/><foreignObject width="119.125" height="19"><div xmlns="http://www.w3.org/1999/xhtml" style="display: inline-block; white-space: nowrap;"><span class="nodeLabel">Maker -&gt; Funded</span></div></foreignObject></g></g><g class="node default default flowchart-label" id="flowchart-VERIFY-9" data-node="true" data-id="VERIFY" transform="translate(216.20703125, 599.671875)"><polygon points="160.671875,0 321.34375,-160.671875 160.671875,-321.34375 0,-160.671875" class="label-container" transform="translate(-160.671875,160.671875)" style=""/><g class="label" style="" transform="translate(-126.671875, -19)"><rect/><foreignObject width="253.34375" height="38"><div xmlns="http://www.w3.org/1999/xhtml" style="display: inline-block; white-space: nowrap;"><span class="nodeLabel">Taker: OBX SwapOut on-chain<br />and valid? K, amount, window, R, T</span></div></foreignObject></g></g><g class="node default default flowchart-label" id="flowchart-TABORT-11" data-node="true" data-id="TABORT" transform="translate(101.83984375, 855.84375)"><rect class="basic label-container" style="" rx="0" ry="0" x="-59.40625" y="-26.5" width="118.8125" height="53"/><g class="label" style="" transform="translate(-51.90625, -19)"><rect/><foreignObject width="103.8125" height="38"><div xmlns="http://www.w3.org/1999/xhtml" style="display: inline-block; white-space: nowrap;"><span class="nodeLabel">Taker Abort<br />no XNO locked</span></div></foreignObject></g></g><g class="node default default flowchart-label" id="flowchart-ABEND-13" data-node="true" data-id="ABEND" transform="translate(101.83984375, 949.34375)"><rect style="" rx="17" ry="17" x="-99.8125" y="-17" width="199.625" height="34"/><g class="label" style="" transform="translate(-88.0625, -9.5)"><rect/><foreignObject width="176.125" height="19"><div xmlns="http://www.w3.org/1999/xhtml" style="display: inline-block; white-space: nowrap;"><span class="nodeLabel">Aborted - nothing at risk</span></div></foreignObject></g></g><g class="node default default flowchart-label" id="flowchart-LOCK-17" data-node="true" data-id="LOCK" transform="translate(330.57421875, 855.84375)"><rect class="basic label-container" style="" rx="0" ry="0" x="-87.5" y="-26.5" width="175" height="53"/><g class="label" style="" transform="translate(-80, -19)"><rect/><foreignObject width="160" height="38"><div xmlns="http://www.w3.org/1999/xhtml" style="display: inline-block; white-space: nowrap;"><span class="nodeLabel">Taker Lock real XNO<br />to joint sA+sB account</span></div></foreignObject></g></g><g class="node default default flowchart-label" id="flowchart-LOCKED-19" data-node="true" data-id="LOCKED" transform="translate(330.57421875, 949.34375)"><rect class="basic label-container" style="" rx="0" ry="0" x="-78.921875" y="-17" width="157.84375" height="34"/><g class="label" style="" transform="translate(-71.421875, -9.5)"><rect/><foreignObject width="142.84375" height="19"><div xmlns="http://www.w3.org/1999/xhtml" style="display: inline-block; white-space: nowrap;"><span class="nodeLabel">Taker -&gt; XNOLocked</span></div></foreignObject></g></g><g class="node default default flowchart-label" id="flowchart-CONF-21" data-node="true" data-id="CONF" transform="translate(330.57421875, 1144.1953125)"><polygon points="127.8515625,0 255.703125,-127.8515625 127.8515625,-255.703125 0,-127.8515625" class="label-container" transform="translate(-127.8515625,127.8515625)" style=""/><g class="label" style="" transform="translate(-93.8515625, -19)"><rect/><foreignObject width="187.703125" height="38"><div xmlns="http://www.w3.org/1999/xhtml" style="display: inline-block; white-space: nowrap;"><span class="nodeLabel">Maker: lock pays joint key<br />exact agreed amount?</span></div></foreignObject></g></g><g class="node default default flowchart-label" id="flowchart-REFUNDW-25" data-node="true" data-id="REFUNDW" transform="translate(190.1640625, 2093.9375)"><rect class="basic label-container" style="" rx="0" ry="0" x="-119.2578125" y="-26.5" width="238.515625" height="53"/><g class="label" style="" transform="translate(-111.7578125, -19)"><rect/><foreignObject width="223.515625" height="38"><div xmlns="http://www.w3.org/1999/xhtml" style="display: inline-block; white-space: nowrap;"><span class="nodeLabel">Wait UnlockHeight<br />Maker Refund OBX via timelock</span></div></foreignObject></g></g><g class="node default default flowchart-label" id="flowchart-REFEND-27" data-node="true" data-id="REFEND" transform="translate(190.1640625, 2196.9375)"><rect style="" rx="17" ry="17" x="-45.421875" y="-17" width="90.84375" height="34"/><g class="label" style="" transform="translate(-33.671875, -9.5)"><rect/><foreignObject width="67.34375" height="19"><div xmlns="http://www.w3.org/1999/xhtml" style="display: inline-block; white-space: nowrap;"><span class="nodeLabel">Refunded</span></div></foreignObject></g></g><g class="node default default flowchart-label" id="flowchart-CLAIMREQ-29" data-node="true" data-id="CLAIMREQ" transform="translate(440.79296875, 1358.046875)"><rect class="basic label-container" style="" rx="0" ry="0" x="-185.4375" y="-17" width="370.875" height="34"/><g class="label" style="" transform="translate(-177.9375, -9.5)"><rect/><foreignObject width="355.875" height="19"><div xmlns="http://www.w3.org/1999/xhtml" style="display: inline-block; white-space: nowrap;"><span class="nodeLabel">Taker BuildClaim -&gt; ClaimRequest core hash + s_a</span></div></foreignObject></g></g><g class="node default default flowchart-label" id="flowchart-COSIGN-31" data-node="true" data-id="COSIGN" transform="translate(440.79296875, 1557.2421875)"><polygon points="132.1953125,0 264.390625,-132.1953125 132.1953125,-264.390625 0,-132.1953125" class="label-container" transform="translate(-132.1953125,132.1953125)" style=""/><g class="label" style="" transform="translate(-107.6953125, -9.5)"><rect/><foreignObject width="215.390625" height="19"><div xmlns="http://www.w3.org/1999/xhtml" style="display: inline-block; white-space: nowrap;"><span class="nodeLabel">Maker verify s_a, nonce guard</span></div></foreignObject></g></g><g class="node default default flowchart-label" id="flowchart-PRESIG-35" data-node="true" data-id="PRESIG" transform="translate(563.375, 1775.4375)"><rect class="basic label-container" style="" rx="0" ry="0" x="-97.1171875" y="-17" width="194.234375" height="34"/><g class="label" style="" transform="translate(-89.6171875, -9.5)"><rect/><foreignObject width="179.234375" height="19"><div xmlns="http://www.w3.org/1999/xhtml" style="display: inline-block; white-space: nowrap;"><span class="nodeLabel">Maker -&gt; ClaimPreSig s_b</span></div></foreignObject></g></g><g class="node default default flowchart-label" id="flowchart-FINAL-37" data-node="true" data-id="FINAL" transform="translate(563.375, 1868.9375)"><rect class="basic label-container" style="" rx="0" ry="0" x="-112.5703125" y="-26.5" width="225.140625" height="53"/><g class="label" style="" transform="translate(-105.0703125, -19)"><rect/><foreignObject width="210.140625" height="38"><div xmlns="http://www.w3.org/1999/xhtml" style="display: inline-block; white-space: nowrap;"><span class="nodeLabel">Taker aggregate s_a+s_b<br />adapt with sA, verify under K</span></div></foreignObject></g></g><g class="node default default flowchart-label" id="flowchart-MINE-39" data-node="true" data-id="MINE" transform="translate(563.375, 1971.9375)"><rect class="basic label-container" style="" rx="0" ry="0" x="-142.609375" y="-26.5" width="285.21875" height="53"/><g class="label" style="" transform="translate(-135.109375, -19)"><rect/><foreignObject width="270.21875" height="38"><div xmlns="http://www.w3.org/1999/xhtml" style="display: inline-block; white-space: nowrap;"><span class="nodeLabel">Taker mine OBX claim<br />takes OBX, publishes S_full reveals sA</span></div></foreignObject></g></g><g class="node default default flowchart-label" id="flowchart-SCRAPE-41" data-node="true" data-id="SCRAPE" transform="translate(624.51953125, 2093.9375)"><rect class="basic label-container" style="" rx="0" ry="0" x="-111.5625" y="-26.5" width="223.125" height="53"/><g class="label" style="" transform="translate(-104.0625, -19)"><rect/><foreignObject width="208.125" height="38"><div xmlns="http://www.w3.org/1999/xhtml" style="display: inline-block; white-space: nowrap;"><span class="nodeLabel">Maker scrape on-chain claim<br />extract sA = S_full - s_a - s_b</span></div></foreignObject></g></g><g class="node default default flowchart-label" id="flowchart-SWEEP-43" data-node="true" data-id="SWEEP" transform="translate(624.51953125, 2196.9375)"><rect class="basic label-container" style="" rx="0" ry="0" x="-88.3359375" y="-26.5" width="176.671875" height="53"/><g class="label" style="" transform="translate(-80.8359375, -19)"><rect/><foreignObject width="161.671875" height="38"><div xmlns="http://www.w3.org/1999/xhtml" style="display: inline-block; white-space: nowrap;"><span class="nodeLabel">Maker Sweep real XNO<br />joint -&gt; maker address</span></div></foreignObject></g></g><g class="node default default flowchart-label" id="flowchart-DONE-45" data-node="true" data-id="DONE" transform="translate(624.51953125, 2290.4375)"><rect style="" rx="17" ry="17" x="-103.4375" y="-17" width="206.875" height="34"/><g class="label" style="" transform="translate(-91.6875, -9.5)"><rect/><foreignObject width="183.375" height="19"><div xmlns="http://www.w3.org/1999/xhtml" style="display: inline-block; white-space: nowrap;"><span class="nodeLabel">XNO swept - swap settled</span></div></foreignObject></g></g></g></g></g></svg>